<svg width="84" height="59" viewBox="0 0 84 59" fill="none" xmlns="http://www.w3.org/2000/svg">
<path fill-rule="evenodd" clip-rule="evenodd" d="M0.153718 0H83.7084V57.7959H0.153718V0Z" fill="#F7FCFF"/>
<path d="M0.224631 13.2449H83.7794V20.4694H0.224631V13.2449Z" fill="#E31D1C"/>
<path fill-rule="evenodd" clip-rule="evenodd" d="M0.153718 0H83.7084V7.22449H0.153718V0Z" fill="#E31D1C"/>
<path d="M0 26.4898H83.5547V33.7143H0V26.4898Z" fill="#E31D1C"/>
<path d="M0.445283 39.4939H84V46.7184H0.445283V39.4939Z" fill="#E31D1C"/>
<path d="M0.418672 51.7755H83.9734V59H0.418672V51.7755Z" fill="#E31D1C"/>
<path fill-rule="evenodd" clip-rule="evenodd" d="M0.153718 0H41.9311V33.7143H0.153718V0Z" fill="#3D58DB"/>
<path fill-rule="evenodd" clip-rule="evenodd" d="M21.3883 22.1866L13.7603 27.0663L16.1978 18.7085L10.5981 13.3696L18.1804 13.0809L21.3883 4.81633L24.5962 13.0809H32.1656L26.5788 18.7085L29.3768 26.573L21.3883 22.1866Z" fill="#F7FCFF"/>
</svg>
